<?xml version="1.0" standalone="no"?>
<!DOCTYPE svg PUBLIC "-//W3C//DTD SVG 20010904//EN"
 "http://www.w3.org/TR/2001/REC-SVG-20010904/DTD/svg10.dtd">
<svg version="1.0" xmlns="http://www.w3.org/2000/svg"
 width="512.000000pt" height="512.000000pt" viewBox="0 0 512.000000 512.000000"
 preserveAspectRatio="xMidYMid meet">

<g transform="translate(0.000000,512.000000) scale(0.100000,-0.100000)"
fill="#000000" stroke="none">
<path d="M4462 4783 c-100 -174 -180 -318 -178 -320 7 -8 437 111 465 128 48
29 47 57 -9 270 -48 181 -70 239 -88 239 -4 0 -89 -143 -190 -317z"/>
<path d="M4113 4992 l-171 -47 -196 -339 c-108 -187 -195 -340 -193 -341 1 -1
80 19 176 44 l174 47 67 115 c215 369 328 569 322 568 -4 -1 -84 -22 -179 -47z"/>
<path d="M3376 4794 c-87 -24 -160 -44 -161 -46 -13 -13 -386 -670 -383 -673
2 -2 81 16 175 42 l171 45 189 326 c103 179 192 331 196 339 12 19 -9 16 -187
-33z"/>
<path d="M2657 4602 l-169 -47 -194 -335 c-113 -195 -188 -336 -181 -338 12
-2 336 83 341 90 10 14 386 669 386 673 0 7 -1 7 -183 -43z"/>
<path d="M1941 4411 c-125 -34 -178 -53 -187 -67 -27 -39 -383 -659 -380 -661
1 -1 80 19 176 44 l175 47 168 290 c92 160 181 315 198 344 17 28 29 52 27 51
-2 -1 -81 -22 -177 -48z"/>
<path d="M1200 4213 l-165 -45 -193 -335 c-106 -184 -191 -337 -189 -340 5 -4
147 31 294 73 l52 15 192 332 c105 183 194 335 196 340 7 11 -11 7 -187 -40z"/>
<path d="M482 4020 c-95 -26 -174 -49 -175 -51 -2 -2 -32 -53 -66 -113 l-63
-109 48 -178 c47 -179 47 -179 64 -152 75 124 372 645 369 647 -2 2 -82 -18
-177 -44z"/>
<path d="M272 1723 l3 -1663 28 -27 27 -28 2278 -3 c1698 -2 2284 1 2305 9 61
25 57 -74 57 1431 l0 1378 -188 0 -187 0 -280 280 -280 280 -185 0 -185 0 280
-280 280 -280 -190 0 -190 0 -280 280 -280 280 -185 0 -185 0 280 -280 280
-280 -195 0 -195 0 -280 280 -280 280 -185 0 -185 0 280 -280 280 -280 -190 0
-190 0 -280 280 -280 280 -185 0 -185 0 280 -280 280 -280 -190 0 -190 0 -280
280 -280 280 -185 0 -185 0 280 -280 280 -280 -190 0 -190 0 -283 283 -282
282 2 -1662z m2063 296 c83 -44 340 -181 571 -305 232 -123 429 -233 439 -244
27 -30 24 -96 -6 -125 -13 -13 -278 -159 -589 -324 -577 -307 -600 -318 -652
-290 -47 25 -48 38 -48 679 0 636 1 652 47 679 43 25 85 12 238 -70z"/>
<path d="M4690 3105 l275 -275 3 182 2 182 -92 93 -93 93 -185 0 -185 0 275
-275z"/>
</g>
</svg>
