<svg width="75" height="75" viewBox="0 0 75 75" fill="none" xmlns="http://www.w3.org/2000/svg">
<path d="M31.4292 59.9963C31.6821 60.0807 31.8508 60.0807 32.1037 60.1651C31.8508 63.8794 30.2487 67.5092 27.4661 70.2949C23.1658 74.6 17.0105 75.9506 11.614 74.3468L20.4676 65.4832L17.3478 57.6327L9.50603 54.5093L0.652456 63.4573C-0.949619 58.0547 0.399498 51.8925 4.69981 47.5873C7.56668 44.7172 11.1081 43.1978 14.8182 42.9445C14.8182 43.1133 14.9025 43.2822 14.9868 43.5354L11.867 45.3081L13.2161 49.6977L17.2634 49.2756C17.7694 50.1198 18.2753 50.9639 18.8655 51.7236L16.7575 54.4249L19.7087 57.9703L23.2501 56.0288C24.009 56.6197 24.8522 57.2106 25.6954 57.6327L24.7679 61.0093L28.8153 63.1196L31.4292 59.9963Z" fill="#2C2E87"/>
<path d="M64.2295 39.7367V35.1783L60.3508 34.3342C60.2665 33.5745 60.0979 32.8147 59.9292 32.055C57.7369 32.2238 55.5446 31.8862 53.5209 31.1264C54.2798 33.1524 54.7857 35.2628 54.7857 37.5419C54.7857 47.0808 47.0283 54.847 37.5002 54.847C27.972 54.847 20.2146 47.0808 20.2146 37.5419C20.2146 28.0031 27.972 20.2369 37.5002 20.2369C39.7768 20.2369 41.9691 20.659 43.9085 21.5032C43.1496 19.3928 42.8123 17.198 42.981 15.0877C42.1378 14.9188 41.2946 14.75 40.4514 14.5812L39.6082 10.6981H34.9706L34.1274 14.5812C33.1999 14.75 32.188 14.9188 31.3448 15.1721L29.1525 11.8799L24.9365 13.6526L25.6954 17.6201C24.9365 18.0422 24.1777 18.5487 23.5031 19.1396L20.6362 16.9448L17.0948 19.8993L19.0341 23.4447C18.4439 24.2044 17.8537 25.0486 17.4321 25.8927L14.0593 24.9642L11.9513 29.0161L15.0711 31.5485C14.8182 32.4771 14.6495 33.4056 14.4809 34.4186L10.9395 34.8407L10.5179 39.3991L14.3966 40.5809C14.4809 41.5939 14.7338 42.5224 14.9868 43.451L11.867 45.2237L13.2161 49.6132L17.2634 49.1912C17.7694 50.0353 18.2753 50.8795 18.8655 51.6392L16.7575 54.4249L19.7087 57.9703L23.2501 56.0288C24.009 56.6197 24.8522 57.2106 25.6954 57.6326L24.7679 61.0092L28.8152 63.1196L31.3448 59.9962C32.2723 60.2495 33.1999 60.4183 34.2117 60.5872L34.6333 64.1326L39.1866 64.5546L40.367 60.6716C41.3789 60.5872 42.3064 60.3339 43.2339 60.0807L45.0046 63.204L49.3893 61.8534L48.9677 57.8015C49.8952 57.295 50.7384 56.7041 51.5816 56.0288L54.87 58.2235L58.0742 55.0158L55.8819 51.6392C56.4721 50.8795 56.978 50.0353 57.4839 49.2756L61.3627 50.0353L63.1334 45.8146L59.8449 43.451C60.0979 42.5224 60.2665 41.5939 60.3508 40.5809L64.2295 39.7367Z" fill="#D9DB69"/>
<path d="M70.3006 27.4966C65.4944 32.3083 58.4115 33.4056 52.5091 30.8732L30.7546 52.5678C30.9233 52.9899 31.0919 53.4119 31.2605 53.834C26.7073 52.0613 22.9972 48.4315 21.2265 43.7887C21.6481 43.9575 22.0697 44.0419 22.4913 44.2951L44.2458 22.5162C41.7162 16.6071 42.8124 9.5163 47.6186 4.70467C51.9189 0.39952 58.0742 -0.951115 63.4707 0.652763L54.5328 9.5163L57.6526 17.3669L65.4944 20.4902L74.3479 11.6267C75.95 17.0292 74.6009 23.1915 70.3006 27.4966Z" fill="#2C2E87"/>
</svg>
