<svg width="70" height="71" viewBox="0 0 70 71" fill="none" xmlns="http://www.w3.org/2000/svg">
<path d="M48.918 0.930643C46.0469 1.76892 43.668 4.10726 42.6016 7.1368L42.2735 8.07802L21.9844 8.15155C3.19924 8.22509 1.66799 8.23979 1.33987 8.4751C0.820339 8.84276 0.410183 9.65162 0.328151 10.4605C0.232448 11.3723 0.669948 12.3429 1.36721 12.7841C1.84573 13.0782 2.05081 13.0782 22.0801 13.1224L42.3145 13.1518L42.5742 13.9312C43.668 17.2843 46.4571 19.8138 49.834 20.4609C53.9629 21.2551 58.3516 18.5491 59.8965 14.2548L60.2657 13.2253L64.3535 13.1518C68.3047 13.0782 68.4414 13.0635 68.9336 12.74C69.6582 12.2547 70.0547 11.2988 69.9453 10.3134C69.8633 9.46044 69.5762 8.97512 68.9063 8.4751C68.4688 8.15155 68.3867 8.15155 64.3946 8.15155H60.334L59.9785 7.10739C58.9668 4.15138 56.5742 1.79833 53.7305 0.960056C52.4043 0.56298 50.2442 0.548273 48.918 0.930643ZM53.4024 6.13676C54.9199 6.96033 55.918 8.72511 55.918 10.5781C55.918 13.3871 53.9356 15.5342 51.3379 15.5342C49.4649 15.5489 47.961 14.5489 47.1406 12.74C46.7442 11.8723 46.6895 11.6223 46.6895 10.5781C46.7031 9.21043 47.0723 8.15155 47.9199 7.15151C49.2051 5.62203 51.625 5.16613 53.4024 6.13676Z" fill="white"/>
<path d="M21.3418 25.8876C18.375 26.5788 15.7363 29.079 14.6836 32.182L14.3828 33.0791L7.98438 33.1527C1.85938 33.2262 1.54492 33.2409 1.09375 33.5203C0.519531 33.8733 0 34.9028 0 35.6528C0.0136719 36.3881 0.4375 37.3146 0.970703 37.7264L1.43555 38.0794L7.91602 38.1529L14.3828 38.2264L14.6836 39.1235C16.0508 43.1678 19.8789 45.8738 23.8574 45.6091C26.291 45.4473 28.1367 44.5355 29.9004 42.6384C30.8027 41.6531 31.1309 41.1677 31.6367 40.0353C31.9785 39.2706 32.2656 38.5353 32.2656 38.4029C32.2656 38.1676 33.4688 38.1529 50.4219 38.1235L68.5645 38.0794L69.0293 37.7264C69.5625 37.3146 70 36.3881 70 35.6528C70 34.9175 69.5625 33.9909 69.0293 33.5792L68.5645 33.2262L50.4219 33.1821C32.7305 33.1527 32.2656 33.138 32.2656 32.8732C32.2656 32.7262 31.9785 31.9762 31.623 31.2261C31.1035 30.0937 30.7754 29.6084 29.8184 28.5789C28.8613 27.5495 28.4238 27.1965 27.4668 26.6965C25.5117 25.6817 23.3789 25.4023 21.3418 25.8876ZM25.457 31.2114C26.4824 31.7556 27.1523 32.5056 27.6445 33.6821C28.123 34.7998 28.082 36.6234 27.5762 37.7411C27.084 38.8294 26.2637 39.7118 25.3203 40.1824C24.6641 40.5207 24.3496 40.5795 23.3789 40.5795C22.3398 40.5795 22.1074 40.5207 21.3008 40.0942C19.7559 39.2706 18.8809 37.8735 18.7578 36.0057C18.6484 34.1821 19.25 32.7262 20.5625 31.6673C21.4922 30.9026 22.2852 30.6526 23.5156 30.6967C24.3633 30.7261 24.7051 30.8143 25.457 31.2114Z" fill="white"/>
<path d="M45.5957 50.7417C44.1191 51.0653 43.709 51.1829 42.957 51.5506C40.6328 52.6683 38.8008 54.7713 37.9805 57.1979L37.666 58.1538L19.6191 58.1832C1.8457 58.2273 1.55859 58.2273 1.12109 58.5215C0.109368 59.1686 -0.259773 60.6686 0.300774 61.8304C0.478509 62.1981 0.820305 62.6393 1.08007 62.8158L1.54491 63.154H19.5781H37.5976L37.748 63.5511C38.1992 64.8012 38.9238 66.2571 39.4707 66.9924C40.6328 68.5954 42.6289 69.9484 44.5293 70.4338C45.9785 70.8014 48.2617 70.6985 49.6016 70.1838C52.5 69.0661 54.5644 66.713 55.5625 63.404C55.6309 63.1687 56.0684 63.154 62.043 63.154H68.4551L68.9062 62.8158C69.5898 62.3158 69.8769 61.8157 69.9453 60.9333C70.041 59.9333 69.6172 58.9774 68.9062 58.5215C68.4551 58.242 68.1406 58.2273 62.0156 58.1538L55.6172 58.0803L55.3027 57.1685C54.4141 54.6536 52.3359 52.3594 50.0254 51.3741C48.6992 50.8152 46.6484 50.5211 45.5957 50.7417ZM47.7832 55.8743C49.998 56.492 51.3926 58.5656 51.2422 61.0363C51.0781 63.7129 49.1367 65.6541 46.6211 65.6541C44.7617 65.6541 43.3125 64.6835 42.4922 62.8893C42.082 62.0069 42.041 61.7863 42.0547 60.6539C42.0547 59.7127 42.1367 59.2274 42.3555 58.7127C42.9297 57.3449 44.2559 56.1537 45.623 55.8155C46.4023 55.6096 46.8945 55.6243 47.7832 55.8743Z" fill="white"/>
</svg>
