<!DOCTYPE svg PUBLIC "-//W3C//DTD SVG 1.1//EN" "http://www.w3.org/Graphics/SVG/1.1/DTD/svg11.dtd">
<!-- Uploaded to: SVG Repo, www.svgrepo.com, Transformed by: SVG Repo Mixer Tools -->
<svg width="150px" height="150px" viewBox="-1 -1 22.00 22.00" version="1.1" xmlns="http://www.w3.org/2000/svg" xmlns:xlink="http://www.w3.org/1999/xlink" fill="#000000" stroke="#000000">
<g id="SVGRepo_bgCarrier" stroke-width="0">
<rect x="-1" y="-1" width="22.00" height="22.00" rx="11" fill="#ffffff" strokewidth="0"/>
</g>
<g id="SVGRepo_tracerCarrier" stroke-linecap="round" stroke-linejoin="round"/>
<g id="SVGRepo_iconCarrier"> <title>finish_line [#103]</title> <desc>Created with Sketch.</desc> <defs> </defs> <g id="Page-1" stroke-width="0.0002" fill="none" fill-rule="evenodd"> <g id="Dribbble-Light-Preview" transform="translate(-260.000000, -7759.000000)" fill="#000000"> <g id="icons" transform="translate(56.000000, 160.000000)"> <path d="M214,7611 L218,7611 L218,7607 L214,7607 L214,7611 Z M210,7607 L214,7607 L214,7603 L210,7603 L210,7607 Z M214,7603 L218,7603 L218,7599 L214,7599 L214,7603 Z M222,7599 L222,7603 L218,7603 L218,7607 L222,7607 L222,7611 L224,7611 L224,7599 L222,7599 Z M206,7607 L210,7607 L210,7611 L206,7611 L206,7619 L204,7619 L204,7599 L210,7599 L210,7603 L206,7603 L206,7607 Z" id="finish_line-[#103]"> </path> </g> </g> </g> </g>
</svg>