<svg width="68" height="72" viewBox="0 0 68 72" fill="none" xmlns="http://www.w3.org/2000/svg">
<path d="M25.2347 63.0452V53.5894C25.2347 51.1843 27.1954 49.23 29.6248 49.2139H38.5235C40.9645 49.2139 42.9432 51.1729 42.9432 53.5894V53.5894V63.0745C42.9427 65.1165 44.5889 66.7855 46.651 66.8333H52.5835C58.4975 66.8333 63.2917 62.0871 63.2917 56.2323V56.2323V29.3333C63.2601 27.03 62.1677 24.8672 60.3254 23.4602L40.0363 7.27967C36.4819 4.46232 31.4291 4.46232 27.8747 7.27967L7.67457 23.4895C5.82529 24.8908 4.7311 27.0573 4.70833 29.3627V56.2323C4.70833 62.0871 9.50253 66.8333 15.4165 66.8333H21.349C23.4623 66.8333 25.1754 65.1373 25.1754 63.0452V63.0452" stroke="#2C2E87" stroke-width="9" stroke-linecap="round" stroke-linejoin="round"/>
</svg>
