<svg width="230" height="60" viewBox="0 0 230 60" fill="none" xmlns="http://www.w3.org/2000/svg">
<path d="M26.7183 0.139064C23.6 0.54011 20.2255 1.52045 17.4084 2.82756C4.69391 8.79869 -2.22074 22.5234 0.641532 36.1144C3.24771 48.5171 13.3711 57.8748 26.2513 59.7612C29.4149 60.2217 34.2205 59.9989 37.5498 59.2414C41.6926 58.2907 46.2421 56.0776 49.6768 53.3445C51.2134 52.1117 53.7894 49.4826 54.9042 47.9972C60.7945 40.1545 62.5269 30.0244 59.514 20.8449C55.8683 9.73446 46.1517 1.69869 34.5067 0.198478C32.6387 -0.0391786 28.4357 -0.0688857 26.7183 0.139064ZM34.3109 2.93153C36.0433 3.51082 37.3841 4.26835 38.6344 5.38237C42.5814 8.91752 44.0276 14.6361 42.3403 19.9537C41.6624 22.0481 40.9243 23.2958 38.9508 25.5981C38.0771 26.623 37.6251 27.5884 37.6251 28.4054C37.6251 29.7719 38.5139 31.0196 39.4781 31.0196C40.0656 31.0196 40.5476 30.7225 42.1596 29.3857C45.7299 26.4299 49.029 24.9742 52.5391 24.8257C54.1359 24.7514 54.2866 24.7663 54.5427 25.0485C54.9645 25.5089 54.8439 26.4299 54.3167 26.6824C53.9702 26.8309 53.8045 26.8161 53.1417 26.5635C51.0477 25.7466 48.9236 26.4596 45.76 29.0441C44.9766 29.6828 43.6058 30.7374 42.7169 31.3761C40.9393 32.6238 40.3669 33.2476 40.2464 34.02C40.1258 34.7627 40.4422 35.0301 42.8224 36.2035C45.8956 37.7037 46.5584 37.9117 48.4716 37.9265C50.0082 37.9265 50.0835 37.9117 50.8368 37.4363C52.1926 36.5748 52.7952 35.2826 52.3884 34.0794C52.1625 33.3665 51.4544 32.802 50.7916 32.802C50.0986 32.802 49.722 33.2179 49.5864 34.0943C49.4508 35.0152 49.3152 35.1786 48.6223 35.1786C46.8145 35.1786 47.1459 32.3564 49.0742 31.1979C50.4903 30.3661 52.0419 30.574 53.3676 31.7771C54.2564 32.5792 54.6481 33.619 54.6481 35.1489C54.6481 36.5748 54.2414 37.4958 53.2622 38.4018C51.8461 39.6792 50.3396 40.1546 48.0348 40.0357C46.1366 39.9466 45.3533 39.7089 42.2801 38.283C41.0598 37.7186 39.8848 37.2581 39.6739 37.2581C38.755 37.2581 37.7908 38.1048 37.6703 38.996C37.595 39.6347 38.4989 42.4123 39.3124 44.0016C40.8188 46.9426 42.8224 48.7845 45.293 49.4974C46.9802 49.9876 48.3662 49.7351 49.3303 48.7696C49.8425 48.2794 49.9781 48.0269 49.9781 47.6407C49.9781 46.7198 49.496 46.4228 48.2005 46.5564C47.4171 46.6456 47.2665 46.6158 46.9802 46.3336C46.5434 45.9029 46.5584 45.1305 47.0104 44.7146C48.0799 43.7343 50.0835 43.9274 51.3038 45.1305C52.1173 45.9177 52.3131 46.4228 52.3131 47.6556C52.3131 48.532 52.2378 48.9033 51.9666 49.4083C51.1833 50.864 49.8124 51.6809 47.5979 52.0077C44.8863 52.4087 42.2349 51.265 39.3877 48.4725C36.9924 46.1257 35.4257 43.6451 33.859 39.7387C33.5125 38.8623 33.0907 37.9711 32.9099 37.7631C32.2471 36.9313 30.5749 36.5748 29.1437 36.9759C27.8633 37.3175 26.9594 38.684 26.0103 41.7142C25.4379 43.6006 24.7298 45.0117 23.7506 46.3336C22.1688 48.4577 19.3216 50.6115 16.9113 51.5472C15.2391 52.1859 13.4163 52.2899 12.0153 51.8146C8.56551 50.656 7.33021 47.5368 9.43926 45.2345C10.4636 44.1204 12.0153 43.7788 13.2958 44.3878C14.1243 44.774 14.3503 45.2642 14.049 45.9474C13.7628 46.6456 13.2205 46.8981 12.7083 46.5564C11.8345 45.992 10.9156 46.5564 10.9307 47.6407C10.9608 49.2746 12.8439 50.0767 15.3747 49.5271C17.77 48.9924 19.9092 47.0912 21.4005 44.165C22.1839 42.5905 23.1631 39.8575 23.1631 39.2039C23.1631 38.2533 22.1086 37.2581 21.0993 37.2581C20.8733 37.2581 19.6229 37.7631 18.3424 38.3721C15.6609 39.6495 14.1545 40.0803 12.422 40.0803C10.2226 40.0803 8.44499 39.4119 7.30008 38.1493C6.47153 37.2433 6.14011 36.3372 6.14011 35.0152C6.14011 32.0594 8.49019 30.1135 11.1265 30.8859C12.3919 31.2721 13.3711 32.5644 13.3711 33.8715C13.3711 34.4656 13.2958 34.6142 12.889 34.9558C12.5426 35.2529 12.3166 35.3271 12.0304 35.2529C11.5634 35.1489 11.2621 34.7924 11.2621 34.3617C11.2621 33.8269 10.9457 33.0991 10.6595 32.9506C9.45432 32.3119 8.09851 33.6338 8.29435 35.2529C8.3998 36.2778 8.88187 36.8868 10.0268 37.4363C10.9457 37.882 11.1416 37.9265 12.3919 37.9117C13.5519 37.9117 13.9285 37.8374 15.0282 37.4066C16.9716 36.664 19.8941 35.2677 20.1803 34.941C20.9034 34.124 20.5419 33.3665 19.0957 32.6535C17.9658 32.0891 16.7757 31.1087 14.6064 28.9401C12.8439 27.1725 12.3919 26.8903 11.6688 27.0686C11.1566 27.1874 10.554 27.841 10.3431 28.4648C10.087 29.252 9.78574 29.5343 9.19822 29.5343C7.46579 29.5343 7.91773 26.9497 9.81587 25.9843C11.9852 24.8851 14.1545 25.702 17.6193 28.9104C19.2463 30.4255 19.7133 30.7077 20.7226 30.8117C22.199 30.9751 23.2535 29.8165 23.1179 28.1529C23.0275 27.1577 22.6509 26.4596 21.4307 25.0782C19.1409 22.4788 17.9809 19.6715 17.785 16.2849C17.4687 10.6257 20.6473 5.24869 25.4831 3.27316C27.3209 2.53049 28.3303 2.35224 30.6954 2.3968C32.699 2.44137 33.0003 2.48593 34.3109 2.93153Z" fill="#2C2E87"/>
<path d="M24.9407 20.1023C23.7205 20.7707 23.826 22.8502 25.1064 23.5186C25.8145 23.8751 26.2966 23.8008 26.869 23.2364C27.3511 22.7611 27.4716 22.3897 27.3812 21.5876C27.2456 20.3993 25.8898 19.5824 24.9407 20.1023Z" fill="#2C2E87"/>
<path d="M34.4615 20.2062C33.0003 21.1717 33.1509 23.3849 34.6875 23.682C36.3446 23.979 37.4744 21.5134 36.2241 20.3548C35.6817 19.8498 35.0792 19.8052 34.4615 20.2062Z" fill="#2C2E87"/>
<path d="M203.637 17.5029V19.7309H205.821H208.006V17.5029V15.2749H205.821H203.637V17.5029Z" fill="#2C2E87"/>
<path d="M168.235 29.9056V44.3878H170.269H172.303L172.318 40.9269C172.318 39.0405 172.378 36.0104 172.453 34.2131C172.619 29.6382 173.011 28.5242 174.803 27.6627C175.496 27.3359 175.858 27.2617 176.762 27.2617C178.328 27.2617 179.413 27.7964 180.091 28.9253C180.362 29.3709 180.663 30.0987 180.769 30.5592C181.025 31.6732 181.025 36.456 180.769 37.57C180.272 39.7089 178.901 40.8527 176.822 40.8824H175.752L175.798 42.6797L175.843 44.4621L176.822 44.5661C178.283 44.6997 180.046 44.4472 181.191 43.9274C184.023 42.6351 185.258 39.6347 185.258 34.0646C185.258 29.7719 184.46 26.8606 182.878 25.3307C180.483 23.0135 175.572 22.9244 173.071 25.1525L172.453 25.702V20.5627V15.4234H170.344H168.235V29.9056Z" fill="#2C2E87"/>
<path d="M190.681 27.1874C190.681 34.6884 190.742 39.3079 190.847 39.9317C191.028 41.0755 191.736 42.442 192.474 43.0807C192.76 43.3332 193.378 43.7194 193.845 43.9273C194.583 44.269 194.9 44.3135 196.903 44.3581L199.118 44.4175V42.6202V40.823H197.747C196.21 40.823 195.728 40.6447 195.261 39.8723C194.99 39.4267 194.975 38.8623 194.93 27.4102L194.884 15.4234H192.791H190.681V27.1874Z" fill="#2C2E87"/>
<path d="M78.4501 23.5928C75.4975 23.9048 73.1022 25.4495 72.2586 27.5736C71.9874 28.2569 71.9121 28.7173 71.9121 29.9056C71.9121 31.2276 71.9573 31.4949 72.349 32.3267C73.0721 33.9012 74.4882 34.9112 76.6273 35.3271C77.0039 35.4014 78.4351 35.5648 79.7909 35.6985C82.6381 35.951 83.4365 36.2184 83.9035 37.1096C84.25 37.7483 84.25 38.7583 83.9186 39.4416C83.2558 40.8378 80.4839 41.4765 77.5161 40.9121C76.1453 40.6447 75.2715 40.2734 74.3225 39.5604L73.5843 39.0108L72.2134 40.3774L70.8425 41.729L71.4451 42.2341C72.3791 43.0361 73.9458 43.7788 75.5577 44.1947C76.8081 44.5215 77.3504 44.5809 79.354 44.5809C81.9753 44.5958 83.1051 44.4027 84.702 43.6451C87.3383 42.3974 88.6941 39.8723 88.2421 37.0502C87.9408 35.2083 87.1575 34.0349 85.7113 33.2774C84.476 32.6238 83.4365 32.401 80.4839 32.1336C77.6065 31.8811 76.8232 31.6138 76.2357 30.7374C75.6029 29.8016 75.8741 28.4202 76.8081 27.7073C77.5764 27.1428 78.5405 26.9497 80.3784 27.0389C82.1108 27.128 83.3311 27.4548 84.3253 28.1083L84.8827 28.4648L86.1934 27.1725L87.519 25.8654L87.037 25.4792C86.4043 24.9445 84.9129 24.2612 83.7529 23.9642C82.9394 23.7562 80.0621 23.4146 79.58 23.474C79.5047 23.474 78.9925 23.5334 78.4501 23.5928Z" fill="#2C2E87"/>
<path d="M98.245 23.7562C96.1812 24.0087 94.7651 24.6474 93.575 25.8357L92.8369 26.5636L94.1625 27.8558L95.4732 29.1481L96.0305 28.6133C96.9646 27.7221 98.1697 27.2617 99.7816 27.1874C102.026 27.0834 103.488 27.6627 104.211 28.9401L104.587 29.6085V34.0646V38.5207L104.211 39.2633C103.563 40.5259 102.192 41.1349 99.9624 41.1497C98.4108 41.1497 97.5822 40.9418 96.9043 40.3625C96.2565 39.7981 96.0305 39.1 96.1059 37.9414C96.2113 36.1887 97.2357 35.446 99.7364 35.3569L101.198 35.2974V33.9012V32.505H99.3448C95.7443 32.505 93.7106 33.4853 92.5808 35.7431C92.0987 36.6937 92.0836 36.8125 92.0836 38.4464C92.0836 40.006 92.1138 40.2288 92.5054 41.0458C93.0628 42.2043 93.5298 42.7985 94.3584 43.3629C95.3074 44.0016 96.5126 44.3878 98.0191 44.5364C100.324 44.774 102.403 44.2987 103.879 43.1995C104.316 42.8728 104.708 42.6054 104.738 42.6054C104.783 42.6054 104.813 43.0064 104.813 43.4966V44.3878H106.862H108.896L108.851 36.6937C108.805 29.1184 108.79 28.9995 108.459 28.0638C107.495 25.4495 105.642 24.187 102.102 23.7414C100.67 23.578 99.6009 23.578 98.245 23.7562Z" fill="#2C2E87"/>
<path d="M151.062 23.8157C148.29 24.5732 146.256 26.519 145.277 29.3857C144.749 30.9305 144.584 32.1336 144.584 34.2874C144.584 40.9864 147.928 44.6849 153.939 44.6849C156.5 44.6849 159.302 43.7046 160.989 42.2044L161.787 41.4914L160.492 40.2585L159.196 39.0406L158.293 39.6941C156.47 41.0161 154.285 41.432 152.312 40.8527C150.941 40.4368 150.037 39.6644 149.374 38.3276L148.877 37.3472L148.832 34.2429C148.787 31.4652 148.817 31.0493 149.088 30.1433C149.66 28.2866 151.001 27.2171 152.975 27.0537C155.837 26.8161 157.765 28.5391 158.097 31.6286L158.187 32.505H155.144H152.116V33.9161V35.3272H157.268H162.405L162.315 33.3516C162.149 29.9799 161.381 27.8855 159.678 26.0882C157.976 24.3058 156.59 23.7414 153.773 23.6523C152.402 23.6077 151.664 23.6523 151.062 23.8157Z" fill="#2C2E87"/>
<path d="M219.334 23.7414C217.27 24.0236 215.674 24.7811 214.483 26.0437L213.956 26.5932L215.297 27.8261L216.653 29.0738L217.24 28.5391C217.572 28.2568 218.22 27.8409 218.687 27.6181C219.455 27.2617 219.696 27.2319 221.338 27.2319C222.92 27.2319 223.236 27.2765 223.854 27.5884C224.727 28.0043 225.405 28.747 225.616 29.4897C225.722 29.8165 225.782 31.7326 225.782 34.0794C225.782 38.788 225.692 39.3079 224.712 40.1248C223.884 40.823 222.784 41.1497 221.127 41.1497C219.063 41.1497 217.994 40.7041 217.481 39.5753C217.105 38.7732 217.12 37.6591 217.496 36.9016C218.039 35.8024 219.154 35.342 221.232 35.3271H222.317V33.916V32.505H220.464C217.632 32.505 216.005 33.0545 214.619 34.4508C213.565 35.5202 213.218 36.5006 213.218 38.4464C213.218 40.3922 213.549 41.328 214.664 42.546C215.99 43.9719 217.692 44.5809 220.359 44.566C222.588 44.566 223.688 44.1947 225.601 42.8133L225.933 42.5757V43.4817V44.3878H227.966H230V37.065C230 29.2817 229.94 28.4945 229.247 27.1577C228.433 25.5981 226.806 24.4543 224.712 23.9642C223.507 23.6968 220.585 23.5631 219.334 23.7414Z" fill="#2C2E87"/>
<path d="M112.391 23.9196C112.421 24.0236 113.596 27.7221 114.967 32.1336C116.353 36.5451 117.799 41.1052 118.16 42.2786L118.838 44.4027L120.661 44.3581L122.484 44.3136L124.864 37.273C126.175 33.411 127.275 30.2175 127.305 30.173C127.35 30.1433 128.48 33.3368 129.82 37.2581L132.276 44.4027L134.084 44.3581L135.892 44.3136L139.1 34.1389C140.878 28.5391 142.324 23.9196 142.324 23.8454C142.324 23.7859 141.33 23.7414 140.11 23.7414H137.88L135.937 30.7671C134.867 34.6142 133.948 37.8671 133.903 37.9711C133.813 38.1345 132.743 35.0746 129.7 25.8506L128.992 23.7265L127.35 23.7711L125.693 23.8156L123.298 31.0196C121.565 36.2332 120.857 38.1345 120.782 37.9265C120.721 37.7631 119.803 34.4954 118.733 30.678L116.805 23.7414H114.56C112.828 23.7414 112.33 23.7859 112.391 23.9196Z" fill="#2C2E87"/>
<path d="M203.637 34.0646V44.3878H205.746H207.855V34.0646V23.7414H205.746H203.637V34.0646Z" fill="#2C2E87"/>
</svg>
