<svg width="140" height="26" viewBox="0 0 140 26" fill="none" xmlns="http://www.w3.org/2000/svg">
<path d="M116.81 1.96969V3.93939H118.732H120.653V1.96969V-3.21493e-06H118.732H116.81V1.96969Z" fill="white"/>
<path d="M85.6697 12.9343V25.7374H87.4586H89.2475L89.2608 22.6778C89.2608 21.0101 89.3138 18.3313 89.38 16.7424C89.5258 12.698 89.8703 11.7131 91.4472 10.9515C92.0568 10.6626 92.3748 10.5969 93.1699 10.5969C94.5481 10.5969 95.5021 11.0697 96.0985 12.0677C96.337 12.4616 96.602 13.105 96.6948 13.5121C96.92 14.4969 96.92 18.7252 96.6948 19.7101C96.2575 21.601 95.0516 22.6121 93.2229 22.6384H92.2821L92.3218 24.2273L92.3616 25.803L93.2229 25.8949C94.5083 26.0131 96.0587 25.7899 97.0658 25.3303C99.557 24.1879 100.644 21.5353 100.644 16.6111C100.644 12.8161 99.9413 10.2424 98.5499 8.88987C96.443 6.84139 92.1231 6.7626 89.9233 8.7323L89.38 9.21815V4.67472V0.131281H87.5249H85.6697V12.9343Z" fill="white"/>
<path d="M105.414 10.5313C105.414 17.1626 105.467 21.2465 105.56 21.798C105.719 22.8091 106.342 24.0172 106.991 24.5818C107.243 24.8051 107.786 25.1465 108.197 25.3303C108.846 25.6323 109.124 25.6717 110.887 25.7111L112.835 25.7636V24.1748V22.5859H111.629C110.277 22.5859 109.853 22.4283 109.443 21.7455C109.204 21.3515 109.191 20.8525 109.151 10.7283L109.111 0.131313H107.269H105.414V10.5313Z" fill="white"/>
<path d="M6.69191 7.35354C4.09465 7.6293 1.9877 8.99496 1.24562 10.8727C1.0071 11.4768 0.940843 11.8838 0.940843 12.9344C0.940843 14.103 0.980597 14.3394 1.32513 15.0748C1.96119 16.4667 3.20682 17.3596 5.0885 17.7273C5.41978 17.7929 6.67866 17.9374 7.87127 18.0556C10.3758 18.2788 11.0781 18.5152 11.4889 19.303C11.7937 19.8677 11.7937 20.7606 11.5021 21.3647C10.9191 22.599 8.48083 23.1636 5.87033 22.6647C4.66446 22.4283 3.89588 22.1 3.06105 21.4697L2.41174 20.9838L1.20587 22.1919L0 23.3869L0.530052 23.8333C1.35163 24.5424 2.72977 25.199 4.14766 25.5667C5.24752 25.8556 5.72456 25.9081 7.48699 25.9081C9.79271 25.9212 10.7866 25.7505 12.1912 25.0808C14.5102 23.9778 15.7028 21.7455 15.3053 19.2505C15.0402 17.6222 14.3512 16.5849 13.079 15.9152C11.9924 15.3374 11.0781 15.1404 8.48083 14.9041C5.94984 14.6808 5.26077 14.4445 4.74397 13.6697C4.18741 12.8424 4.42594 11.6212 5.24752 10.9909C5.92333 10.4919 6.77142 10.3212 8.38808 10.4C9.91198 10.4788 10.9853 10.7677 11.8599 11.3455L12.3502 11.6606L13.5031 10.5182L14.6692 9.36264L14.2452 9.02122C13.6886 8.54849 12.3767 7.94445 11.3564 7.68183C10.6408 7.49799 8.1098 7.19597 7.68576 7.24849C7.6195 7.24849 7.16896 7.30102 6.69191 7.35354Z" fill="white"/>
<path d="M24.1041 7.49796C22.2887 7.72119 21.0431 8.28584 19.9962 9.33635L19.3469 9.97978L20.513 11.1222L21.6659 12.2646L22.1562 11.7919C22.9777 11.004 24.0379 10.597 25.4557 10.5313C27.4302 10.4394 28.7156 10.9515 29.3516 12.0808L29.6829 12.6717V16.6111V20.5505L29.3516 21.2071C28.7818 22.3232 27.576 22.8616 25.6148 22.8747C24.2499 22.8747 23.5211 22.6909 22.9247 22.1788C22.3549 21.6798 22.1562 21.0626 22.2224 20.0384C22.3152 18.4889 23.2163 17.8323 25.416 17.7535L26.7014 17.701V16.4667V15.2323H25.0715C21.9044 15.2323 20.1155 16.099 19.1216 18.0949C18.6976 18.9353 18.6843 19.0404 18.6843 20.4848C18.6843 21.8636 18.7108 22.0606 19.0554 22.7828C19.5457 23.8071 19.9565 24.3323 20.6853 24.8313C21.5201 25.3959 22.5802 25.7374 23.9053 25.8687C25.9328 26.0788 27.7615 25.6586 29.0601 24.6869C29.4444 24.398 29.7889 24.1616 29.8154 24.1616C29.8552 24.1616 29.8817 24.5161 29.8817 24.9495V25.7374H31.6839H33.4728L33.433 18.9353C33.3933 12.2384 33.38 12.1333 33.0885 11.306C32.2404 8.99493 30.6105 7.87877 27.4964 7.48483C26.2376 7.34039 25.2967 7.34039 24.1041 7.49796Z" fill="white"/>
<path d="M70.5632 7.5505C68.125 8.22019 66.336 9.9404 65.4747 12.4747C65.0109 13.8404 64.8651 14.904 64.8651 16.8081C64.8651 22.7303 67.8069 26 73.0942 26C75.3469 26 77.8117 25.1333 79.2958 23.8071L79.9981 23.1768L78.8585 22.0869L77.7189 21.0101L76.9238 21.5879C75.3204 22.7566 73.399 23.1242 71.6631 22.6121C70.4572 22.2444 69.6621 21.5616 69.0791 20.3798L68.6418 19.5131L68.602 16.7687C68.5623 14.3131 68.5888 13.9454 68.8273 13.1444C69.3308 11.503 70.5102 10.5576 72.2461 10.4131C74.7639 10.203 76.46 11.7263 76.7516 14.4576L76.8311 15.2323H74.1543H71.4908V16.4798V17.7273H76.0227H80.5414L80.4619 15.9808C80.3162 13 79.6403 11.1485 78.1429 9.55959C76.6456 7.98383 75.4264 7.48484 72.9484 7.40605C71.7426 7.36666 71.0933 7.40605 70.5632 7.5505Z" fill="white"/>
<path d="M130.618 7.48483C128.803 7.73432 127.398 8.40402 126.351 9.52018L125.887 10.006L127.067 11.0959L128.259 12.199L128.776 11.7262C129.068 11.4768 129.637 11.1091 130.048 10.9121C130.724 10.597 130.936 10.5707 132.38 10.5707C133.772 10.5707 134.05 10.6101 134.593 10.8858C135.362 11.2535 135.958 11.9101 136.144 12.5666C136.237 12.8555 136.29 14.5495 136.29 16.6242C136.29 20.7869 136.21 21.2465 135.349 21.9687C134.62 22.5858 133.653 22.8747 132.195 22.8747C130.38 22.8747 129.439 22.4808 128.988 21.4828C128.657 20.7737 128.67 19.7889 129.001 19.1192C129.478 18.1475 130.459 17.7404 132.288 17.7273H133.242V16.4798V15.2323H131.612C129.121 15.2323 127.69 15.7182 126.47 16.9525C125.543 17.898 125.238 18.7646 125.238 20.4848C125.238 22.205 125.53 23.0323 126.51 24.1091C127.676 25.3697 129.174 25.9081 131.519 25.8949C133.48 25.8949 134.448 25.5667 136.131 24.3454L136.422 24.1353V24.9364V25.7374H138.211H140V19.2636C140 12.3828 139.947 11.6869 139.337 10.505C138.622 9.12624 137.191 8.11513 135.349 7.6818C134.289 7.44544 131.718 7.32725 130.618 7.48483Z" fill="white"/>
<path d="M36.5471 7.6424C36.5736 7.73432 37.6072 11.004 38.8131 14.904C40.0322 18.804 41.3043 22.8353 41.6224 23.8727L42.2187 25.7505L43.8221 25.7111L45.4255 25.6717L47.5192 19.4475C48.6721 16.0333 49.6394 13.2101 49.6659 13.1707C49.7057 13.1444 50.6995 15.9677 51.8789 19.4343L54.0388 25.7505L55.629 25.7111L57.2191 25.6717L60.0417 16.6767C61.6053 11.7262 62.8775 7.6424 62.8775 7.57674C62.8775 7.52422 62.0029 7.48482 60.9295 7.48482H58.9683L57.2589 13.6959C56.3181 17.0969 55.5097 19.9727 55.47 20.0646C55.3905 20.2091 54.4496 17.504 51.7729 9.34947L51.1501 7.47169L49.7057 7.51109L48.248 7.55048L46.1411 13.9192C44.6172 18.5283 43.9943 20.2091 43.9281 20.0252C43.8751 19.8808 43.0668 16.9919 42.1259 13.6171L40.4297 7.48482H38.4553C36.9314 7.48482 36.4941 7.52422 36.5471 7.6424Z" fill="white"/>
<path d="M116.81 16.6111V25.7374H118.665H120.521V16.6111V7.48483H118.665H116.81V16.6111Z" fill="white"/>
</svg>
