<svg width="75" height="76" viewBox="0 0 75 76" fill="none" xmlns="http://www.w3.org/2000/svg">
<path d="M33.7813 1.14844C19.25 2.96484 7.58984 12.1934 2.72656 25.6992C0.00195312 33.2871 0.00195312 42.8379 2.72656 50.4258C6.50586 60.9434 14.8262 69.2637 25.3438 73.043C32.9902 75.7969 42.3652 75.7969 50.0703 73.043C51.2422 72.6328 53.4688 71.6367 54.9922 70.8164C64.9238 65.6895 71.7793 56.4316 74.2109 44.9473C74.9434 41.4609 74.8848 34.4004 74.0938 30.6211C73.7715 29.0391 73.4199 27.6621 73.332 27.6035C73.2441 27.5156 71.457 29.0684 69.3477 31.0312L65.5391 34.6348V38.0918C65.5391 46.0312 62.7266 52.6523 57.0137 58.1602C53.7324 61.2656 50.6563 63.1699 46.4375 64.6055C41.7207 66.1875 34.8066 66.334 30.002 64.8984C20.5391 62.0859 13.5078 54.9082 10.6953 45.2109C10.1094 43.2188 10.0215 42.2227 10.0215 38.0625C10.0215 32.584 10.4316 30.5332 12.5117 26.1387C13.918 23.1504 15.002 21.5391 17.4336 18.9902C20.9785 15.2109 25.0508 12.6914 30.002 11.2266C33.166 10.2891 38.8496 9.9668 42.2773 10.5234C46.6426 11.2266 51.5938 13.3945 54.9629 16.1191L56.7793 17.584L57.7168 16.793C58.2441 16.3535 59.7676 14.9766 61.1152 13.6875L63.5762 11.4023L62.3164 10.2891C57.0723 5.74805 50.2168 2.49609 43.7715 1.44141C41.0762 1.00195 36.0664 0.855469 33.7813 1.14844Z" fill="#2C2E87"/>
<path d="M36.7754 55.2764C34.2852 55.2764 31.7949 54.4099 29.829 52.553L17.5741 41.7526C14.479 38.0266 12.7511 38.0266 15.0725 32.8102C17.1696 28.0976 22.2848 29.2202 26.0857 32.8102L36.7754 41.7526L61.5 16.9999C61.5 16.9999 67.5 12.3269 71.5 15.5C75.5 18.6731 71.5 24.2764 71.5 24.2764L43.5908 52.553C41.7559 54.2861 39.2656 55.2764 36.7754 55.2764Z" fill="#D9DB69"/>
</svg>
