<svg width="148" height="148" viewBox="0 0 148 148" fill="none" xmlns="http://www.w3.org/2000/svg">
<g filter="url(#filter0_d_102_3)">
<path d="M58.5351 0.173416C49.9789 1.4742 42.55 5.78123 34.1094 14.2797L31.1031 17.3437L27.75 14.0195C23.414 9.7703 22.0844 9.16327 19.5117 10.4062C17.9797 11.1578 10.8687 18.3265 10.2617 19.743C9.24999 22.2 9.94374 23.7031 14.1351 27.8656L17.2859 30.9875L16.5922 32.2016C16.1008 33.0109 15.8984 33.8492 15.8984 34.8898C15.8984 36.1617 16.043 36.5664 16.939 37.7226C18.182 39.3703 18.0953 40.093 16.5344 41.6828C15.3203 42.9547 14.4242 43.0703 12.7766 42.232C10.5797 41.1336 9.59686 40.9601 8.15155 41.3648C7.05311 41.6539 6.27264 42.2609 4.01796 44.4867C2.51483 46.0187 1.01171 47.782 0.722644 48.418C-0.0578251 50.0945 -0.144544 52.0023 0.433581 53.7945C0.896081 55.2109 1.58983 55.9914 8.64296 63.0445C15.6961 70.0976 16.4765 70.7914 17.893 71.2539C19.6851 71.832 21.593 71.7453 23.2695 70.9648C23.9055 70.6758 25.6687 69.1726 27.2008 67.6695C31.0164 63.9117 31.3344 62.6109 29.4555 58.9109C28.6461 57.35 28.7617 56.5406 29.9469 55.2109C31.2476 53.7656 32.4617 53.65 33.9937 54.8351C35.4391 55.9336 37.6937 56.0781 39.3414 55.2109L40.5555 54.6039L48.5336 62.5531L56.5117 70.5312L39.8906 87.1523L23.2695 103.773H21.0726C13.2101 103.773 4.97186 109.497 1.76327 117.157C-4.13361 131.379 5.6078 147.017 20.957 147.913C27.0273 148.26 33.0687 146.063 37.3758 141.987C41.5094 138.056 44.2266 132.073 44.2266 126.927V124.73L60.8476 108.109L77.4687 91.4883L80.3594 94.3789L83.25 97.2695L81.2555 99.293C79.3476 101.201 79.0875 101.692 79.1742 103.051C79.232 103.889 119.036 143.635 121.32 145.138C126.465 148.491 132.709 148.838 138.461 146.092C141.178 144.791 144.618 141.467 145.948 138.779C148.578 133.605 148.607 128.112 146.092 122.88C145.052 120.77 144.3 119.99 124.615 100.218C113.399 88.9445 103.947 79.6078 103.629 79.4344C102.357 78.7117 101.461 79.0875 99.3219 81.1976L97.2695 83.25L94.3789 80.3594L91.4883 77.4687L108.225 60.732L124.933 44.0242L127.419 43.8219C130.743 43.5617 133.171 42.9836 135.657 41.7984C145.774 37.0867 150.515 25.2641 146.555 14.6555C145.861 12.8344 145.109 12.1406 143.837 12.1406C143.144 12.1406 142.074 13.0656 137.016 18.0664C133.72 21.3039 130.685 24.1078 130.252 24.2812C129.009 24.7437 127.477 24.6281 126.118 23.9633C123.805 22.8359 122.765 19.8008 123.892 17.5461C124.152 17.0258 126.956 14.0195 130.107 10.8109C134.963 5.89685 135.859 4.88513 135.859 4.16248C135.859 2.8906 135.166 2.13905 133.345 1.4453C130.338 0.317953 127.592 -0.0867371 124.412 0.0867004C113.226 0.78045 104.525 9.62576 104.265 20.5812L104.207 22.8359L87.3547 39.6594L70.5312 56.5117L62.5242 48.5047L54.5461 40.5266L55.5 39.4281C56.8875 37.8094 57.5234 36.2484 57.5234 34.2539C57.5234 31.5945 56.8875 30.5828 52.6961 26.507L48.9961 22.8648L51.4531 20.3789C58.593 13.1234 65.1836 9.22108 71.5141 8.52733C74.0578 8.23827 75.243 6.70623 74.2891 4.88513C73.6531 3.75779 69.8375 1.73435 66.4266 0.751541C64.75 0.260135 60.125 -0.0578339 58.5351 0.173416ZM128.344 5.40546C128.402 5.46327 126.552 7.42889 124.21 9.77029C119.123 14.8867 118.429 16.0719 118.429 19.6562C118.429 21.564 118.573 22.2 119.296 23.7609C121.32 28.0101 125.655 30.2937 130.223 29.4555C132.622 29.0219 133.345 28.5883 136.235 25.7554C138.259 23.7898 138.721 23.443 138.461 24.1367C136.929 28.1836 133.229 32.3461 129.5 34.1961C126.58 35.6414 124.412 36.1617 121.03 36.2484L118.198 36.3062L77.0351 77.4687L35.8437 118.66V121.233C35.8437 124.355 35.2945 126.58 33.7625 129.789C32.7797 131.812 32.1437 132.68 30.0914 134.703C26.0156 138.721 22.0844 140.311 16.3031 140.34C13.239 140.34 13.0656 140.311 12.025 139.53C7.80468 136.293 5.52108 131.986 5.28983 126.754C5.02968 121.464 6.59061 117.388 10.2328 113.746C13.6726 110.335 17.8351 108.716 23.125 108.687H25.582L67.4094 66.8312L109.266 25.0039V22.1133C109.266 20.4656 109.468 18.4422 109.699 17.4883C111.636 9.85702 118.891 4.50936 126.465 5.14529C127.419 5.23201 128.257 5.34764 128.344 5.40546ZM58.7664 7.48669C59.2 7.63123 58.8242 7.9781 56.9453 9.22107C50.6437 13.3258 44.2266 19.9453 44.2266 22.3445C44.2266 22.9515 43.793 23.6453 42.6367 24.9461C40.2664 27.5476 40.2953 27.6344 44.7758 32.2016C48.2156 35.7281 49.4297 37.2891 49.4297 38.2141C49.4297 38.4164 46.6258 41.3937 43.2148 44.8047C37.4336 50.5859 37 50.9617 36.5086 50.5281C35.3812 49.5453 33.9648 49.0539 32.2594 49.0539C29.3976 49.0539 27.1719 50.3258 25.2351 53.1008C24.368 54.3726 24.1945 54.893 24.05 56.5984C23.9344 58.3328 24.0211 58.8242 24.6859 60.2695C25.0906 61.1945 25.4375 62.0906 25.4375 62.293C25.4375 62.8422 21.564 66.4266 20.7547 66.6289C20.2922 66.7445 19.6851 66.6578 19.1937 66.3976C17.864 65.675 5.26093 52.8695 5.05858 51.9734C4.79843 50.9617 5.23202 50.2391 7.42889 47.9266L9.3078 46.0187L11.0711 46.857C14.3664 48.418 17.3437 47.8976 20.0031 45.325C23.125 42.2898 23.732 38.2141 21.4484 35.5258L20.6969 34.6297L31.2766 24.1656C37.0867 18.4133 42.8391 12.95 44.0531 12.025C46.7125 10.0015 49.7766 8.12263 51.1641 7.63123C52.2336 7.22654 57.8703 7.11091 58.7664 7.48669ZM121.724 104.554C142.71 125.598 142.161 124.962 142.768 128.922C144.04 136.958 136.813 144.242 128.951 142.855C126.725 142.45 124.528 141.467 122.996 140.166C122.331 139.617 113.573 130.887 103.484 120.741L85.1578 102.299L93.6851 93.7719C98.339 89.0891 102.241 85.2734 102.328 85.2734C102.415 85.2734 111.145 93.9453 121.724 104.554Z" fill="#2C2E87"/>
<path d="M100.16 44.5156C99.8422 44.6602 87.1234 57.2344 71.9187 72.468C46.3367 98.05 44.2266 100.247 44.2266 101.114C44.2266 102.444 45.5562 103.773 46.8859 103.773C47.7531 103.773 49.95 101.663 75.532 76.0812C90.7656 60.8766 103.369 48.1 103.513 47.7242C103.976 46.5969 103.311 45.1227 102.155 44.6312C101.056 44.1687 100.97 44.1687 100.16 44.5156Z" fill="#2C2E87"/>
<path d="M19.5117 116.29C14.3086 118.024 11.4469 122.562 12.4297 127.534C12.8922 129.876 13.6148 131.263 15.2047 132.882C18.4133 136.062 23.6453 136.669 27.4031 134.298C29.0797 133.258 30.843 131.09 31.5367 129.24C32.8664 125.742 31.739 120.944 29.0508 118.602C26.4781 116.348 22.3734 115.365 19.5117 116.29ZM23.5586 121.146C24.1656 121.32 25.0906 121.869 25.6109 122.389C29.5133 126.291 24.8883 132.593 19.9453 130.078C17.0258 128.575 16.4476 124.644 18.8758 122.36C20.35 120.944 21.6508 120.626 23.5586 121.146Z" fill="#2C2E87"/>
</g>
<defs>
<filter id="filter0_d_102_3" x="-3.97861" y="0.0481491" width="155.929" height="155.901" filterUnits="userSpaceOnUse" color-interpolation-filters="sRGB">
<feFlood flood-opacity="0" result="BackgroundImageFix"/>
<feColorMatrix in="SourceAlpha" type="matrix" values="0 0 0 0 0 0 0 0 0 0 0 0 0 0 0 0 0 0 127 0" result="hardAlpha"/>
<feOffset dy="4"/>
<feGaussianBlur stdDeviation="2"/>
<feComposite in2="hardAlpha" operator="out"/>
<feColorMatrix type="matrix" values="0 0 0 0 0 0 0 0 0 0 0 0 0 0 0 0 0 0 0.25 0"/>
<feBlend mode="normal" in2="BackgroundImageFix" result="effect1_dropShadow_102_3"/>
<feBlend mode="normal" in="SourceGraphic" in2="effect1_dropShadow_102_3" result="shape"/>
</filter>
</defs>
</svg>
